<svg width="48" height="48" viewBox="0 0 48 48" fill="none" xmlns="http://www.w3.org/2000/svg">
<rect width="48" height="48" rx="24" fill="#F0F1F5"/>
<path fill-rule="evenodd" clip-rule="evenodd" d="M31.9986 14C31.9986 13.4477 31.5509 13 30.9986 13C30.4464 13 29.9986 13.4477 29.9986 14V16H27.9986C27.4464 16 26.9986 16.4477 26.9986 17C26.9986 17.5523 27.4464 18 27.9986 18H29.9986V20C29.9986 20.5523 30.4464 21 30.9986 21C31.5509 21 31.9986 20.5523 31.9986 20V18H33.9986C34.5509 18 34.9986 17.5523 34.9986 17C34.9986 16.4477 34.5509 16 33.9986 16H31.9986V14ZM23.1087 16.049C23.6576 15.9883 24.0533 15.494 23.9926 14.9451C23.9318 14.3961 23.4375 14.0004 22.8886 14.0612C17.8883 14.6147 14 18.8526 14 24C14 29.5228 18.4771 34 24 34C29.1479 34 33.3862 30.1109 33.939 25.1099C33.9997 24.5609 33.6039 24.0667 33.0549 24.0061C32.506 23.9454 32.0118 24.3412 31.9511 24.8901C31.509 28.889 28.1171 32 24 32C19.5817 32 16 28.4183 16 24C16 19.8833 19.1104 16.4916 23.1087 16.049ZM25.1653 21.1177C25.1653 20.5654 24.7175 20.1177 24.1653 20.1177C23.613 20.1177 23.1653 20.5654 23.1653 21.1177V27.1177C23.1653 27.67 23.613 28.1177 24.1653 28.1177C24.7175 28.1177 25.1653 27.67 25.1653 27.1177V21.1177ZM21.666 23.1177C21.666 22.5654 21.2183 22.1177 20.666 22.1177C20.1137 22.1177 19.666 22.5654 19.666 23.1177V25.1177C19.666 25.67 20.1137 26.1177 20.666 26.1177C21.2183 26.1177 21.666 25.67 21.666 25.1177V23.1177ZM28.6697 23.1177C28.6697 22.5654 28.222 22.1177 27.6697 22.1177C27.1174 22.1177 26.6697 22.5654 26.6697 23.1177V25.1177C26.6697 25.67 27.1174 26.1177 27.6697 26.1177C28.222 26.1177 28.6697 25.67 28.6697 25.1177V23.1177Z" fill="black"/>
</svg>
