<svg width="24" height="24" viewBox="0 0 24 24" fill="none" xmlns="http://www.w3.org/2000/svg">
<g id="CDS &#226;&#128;&#162; volume-mute">
<path id="Icon" fill-rule="evenodd" clip-rule="evenodd" d="M3.62582 1.79579C3.25389 1.42386 2.65087 1.42386 2.27895 1.79579C1.90702 2.16772 1.90702 2.77073 2.27895 3.14266L20.3742 21.2379C20.7461 21.6098 21.3491 21.6098 21.7211 21.2379C22.093 20.866 22.093 20.263 21.7211 19.891L19.8857 18.0556C21.2078 16.4104 22 14.2979 22 12C22 9.39271 20.9801 7.02399 19.3234 5.30587C18.94 4.90831 18.3069 4.89679 17.9094 5.28015C17.5118 5.66351 17.5003 6.29657 17.8837 6.69413C19.1883 8.04708 20 9.921 20 12C20 13.7524 19.4233 15.359 18.4608 16.6308L17.2233 15.3933C17.9122 14.4451 18.3181 13.2687 18.3181 11.9997C18.3181 10.4468 17.7103 9.03271 16.7199 8.00558C16.3365 7.60802 15.7034 7.59651 15.3059 7.97986C14.9083 8.36322 14.8968 8.99628 15.2802 9.39384C15.9185 10.0558 16.3181 10.9751 16.3181 11.9997C16.3181 12.7199 16.1206 13.3882 15.7816 13.9515L13 11.17V5.43823C13 4.20728 11.6054 3.61343 10.6909 4.28023L8.04171 6.21169L3.62582 1.79579ZM2 10.2502C2 8.96874 2.88069 7.92149 4.04806 7.60135L13 16.5533V18.5617C13 19.7927 11.6054 20.3865 10.6909 19.7197L6.49087 16.6576C6.35224 16.5565 6.18001 16.4996 6 16.4996H4.8C3.28045 16.4996 2 15.2949 2 13.7498V10.2502Z" fill="#0B0C11" style="fill:#0B0C11;fill:color(display-p3 0.0422 0.0475 0.0661);fill-opacity:1;"/>
</g>
</svg>
