<svg width="24" height="24" viewBox="0 0 24 24" fill="none" xmlns="http://www.w3.org/2000/svg">
<g id="CDS &#226;&#128;&#162; mic-off">
<path id="Icon" fill-rule="evenodd" clip-rule="evenodd" d="M7.06201 5.71028L7.06135 5.71448L3.62582 2.27895C3.25389 1.90702 2.65087 1.90702 2.27895 2.27895C1.90702 2.65087 1.90702 3.25389 2.27895 3.62582L7 8.34687L7 11C7 13.7614 9.23858 16 12 16C12.7746 16 13.5081 15.8239 14.1626 15.5094L15.3114 16.6583C14.344 17.2016 13.213 17.5012 12 17.5012C8.38592 17.5012 5.5 14.8421 5.5 11C5.5 10.4477 5.05228 10 4.5 10C3.94772 10 3.5 10.4477 3.5 11C3.5 15.6329 6.79534 18.9856 11 19.4468V22.0012C11 22.5534 11.4477 23.0012 12 23.0012C12.5523 23.0012 13 22.5534 13 22.0012V19.4468C14.3817 19.2952 15.6651 18.8315 16.7658 18.1126L20.3742 21.7211C20.7461 22.093 21.3491 22.093 21.7211 21.7211C22.093 21.3491 22.093 20.7461 21.7211 20.3742L18.2342 16.8873C19.6384 15.4032 20.5 13.369 20.5 11C20.5 10.4477 20.0523 10 19.5 10C18.9477 10 18.5 10.4477 18.5 11C18.5 12.8015 17.8655 14.3429 16.819 15.4721L15.7047 14.3579L15.7071 14.3553L7.06201 5.71028ZM16.7146 12.6691C16.8994 12.1471 17 11.5853 17 11V6.5C17 3.73858 14.7614 1.5 12 1.5C10.2472 1.5 8.70511 2.40189 7.8124 3.76692L16.7146 12.6691Z" fill="black" style="fill:black;fill:black;fill-opacity:1;"/>
</g>
</svg>
