<svg width="24" height="24" viewBox="0 0 24 24" fill="none" xmlns="http://www.w3.org/2000/svg">
<g id="CDS &#226;&#128;&#162; arrow-circle-top-right">
<path id="Icon" fill-rule="evenodd" clip-rule="evenodd" d="M12 22C17.5228 22 22 17.5228 22 12C22 6.47715 17.5228 2 12 2C6.47715 2 2 6.47715 2 12C2 17.5228 6.47715 22 12 22ZM16.5326 8.38778C16.4948 7.896 16.104 7.50525 15.6122 7.46742L11.016 7.11387C10.4654 7.07151 9.98466 7.48357 9.9423 8.03422C9.89994 8.58488 10.312 9.06562 10.8627 9.10798L13.291 9.29477L7.75737 14.8284C7.36685 15.219 7.36685 15.8521 7.75737 16.2427C8.1479 16.6332 8.78106 16.6332 9.17159 16.2427L14.7052 10.709L14.892 13.1374C14.9344 13.688 15.4151 14.1001 15.9658 14.0577C16.5165 14.0154 16.9285 13.5346 16.8862 12.984L16.5326 8.38778Z" fill="black" style="fill:black;fill:black;fill-opacity:1;"/>
</g>
</svg>
