<svg width="24" height="24" viewBox="0 0 24 24" fill="none" xmlns="http://www.w3.org/2000/svg">
<g id="CDS &#226;&#128;&#162; arrow-circle-right">
<path id="Icon" fill-rule="evenodd" clip-rule="evenodd" d="M12 22C17.5228 22 22 17.5228 22 12C22 6.47715 17.5228 2 12 2C6.47715 2 2 6.47715 2 12C2 17.5228 6.47715 22 12 22ZM14.7593 16.1508L17.7593 12.6508C18.0803 12.2763 18.0803 11.7237 17.7593 11.3492L14.7593 7.84923C14.3999 7.4299 13.7686 7.38134 13.3492 7.74077C12.9299 8.10019 12.8813 8.73149 13.2408 9.15081L14.8258 11H7.00002C6.44773 11 6.00002 11.4477 6.00002 12C6.00002 12.5523 6.44773 13 7.00002 13H14.8258L13.2408 14.8492C12.8813 15.2686 12.9299 15.8999 13.3492 16.2593C13.7686 16.6187 14.3999 16.5701 14.7593 16.1508Z" fill="black" style="fill:black;fill:black;fill-opacity:1;"/>
</g>
</svg>
