<svg width="24" height="24" viewBox="0 0 24 24" fill="none" xmlns="http://www.w3.org/2000/svg">
<g id="CDS &#226;&#128;&#162; private-drop">
<path id="Icon" fill-rule="evenodd" clip-rule="evenodd" d="M12 3C8.93532 3 6.31015 3.79161 4.43258 5.35691C2.53317 6.94042 1.50001 9.23347 1.50001 12C1.50001 12.8165 1.76934 13.8187 2.0126 14.5779C2.26608 15.3691 2.53706 16.0322 2.61364 16.2158L2.62642 16.2461L2.63409 16.2641L2.63605 16.2688C2.64545 16.2957 2.72637 16.544 2.66855 16.9774C2.60848 17.4277 2.39154 18.1318 1.70314 19.0398C1.5212 19.2797 1.45709 19.5889 1.52864 19.8815C1.60018 20.174 1.79975 20.4187 2.07192 20.5477C3.45903 21.2047 4.84475 20.9717 5.79597 20.6417C6.25234 20.4834 6.63664 20.2938 6.91575 20.1378C8.55744 20.8505 10.3807 21 12 21C15.0647 21 17.6899 20.2084 19.5674 18.6431C21.4668 17.0596 22.5 14.7665 22.5 12C22.5 9.23347 21.4668 6.94042 19.5674 5.35691C17.6899 3.79161 15.0647 3 12 3ZM7.31843 18.1149C6.98122 17.9376 6.5727 17.9674 6.26482 18.1914L6.25588 18.1976C6.24592 18.2046 6.22826 18.2167 6.20345 18.233C6.15372 18.2657 6.07604 18.3147 5.97493 18.3723C5.77092 18.4885 5.48121 18.634 5.14049 18.7522C4.80999 18.8668 4.45855 18.9471 4.1032 18.9634C4.94726 17.2658 4.67958 16.0323 4.51297 15.578C4.49948 15.5412 4.48663 15.51 4.4776 15.4886L4.46587 15.4609L4.45949 15.4459C4.39373 15.2882 4.14643 14.6831 3.91722 13.9677C3.67778 13.2204 3.50001 12.4778 3.50001 12C3.50001 9.76653 4.31407 8.05958 5.71327 6.89309C7.13431 5.70839 9.25914 5 12 5C14.7409 5 16.8657 5.70839 18.2867 6.89309C19.6859 8.05958 20.5 9.76653 20.5 12C20.5 14.2335 19.6859 15.9404 18.2867 17.1069C16.8657 18.2916 14.7409 19 12 19C10.2949 19 8.64952 18.8146 7.31843 18.1149ZM6.26482 18.1914C6.264 18.1919 6.26318 18.1925 6.26236 18.1932L6.26489 18.1913L6.26482 18.1914ZM10.1738 10.4842L8.38362 11.3793C7.87213 11.635 7.87213 12.365 8.38362 12.6207L10.1738 13.5158C10.3081 13.583 10.417 13.6919 10.4842 13.8262L11.3793 15.6164C11.635 16.1279 12.365 16.1279 12.6207 15.6164L13.5158 13.8262C13.583 13.6919 13.6919 13.583 13.8262 13.5158L15.6164 12.6207C16.1279 12.365 16.1279 11.635 15.6164 11.3793L13.8262 10.4842C13.6919 10.417 13.583 10.3081 13.5158 10.1738L12.6207 8.38362C12.365 7.87213 11.635 7.87213 11.3793 8.38362L10.4842 10.1738C10.417 10.3081 10.3081 10.417 10.1738 10.4842Z" fill="black" style="fill:black;fill:black;fill-opacity:1;"/>
</g>
</svg>
