<svg width="24" height="24" viewBox="0 0 24 24" fill="none" xmlns="http://www.w3.org/2000/svg">
<g id="CDS &#226;&#128;&#162; arrow-circle-top-left">
<path id="Icon" fill-rule="evenodd" clip-rule="evenodd" d="M12 22C17.5228 22 22 17.5228 22 12C22 6.47715 17.5228 2 12 2C6.47715 2 2 6.47715 2 12C2 17.5228 6.47715 22 12 22ZM8.38777 7.46741C7.89599 7.50524 7.50524 7.89599 7.46741 8.38777L7.11386 12.984C7.0715 13.5346 7.48356 14.0154 8.03422 14.0577C8.58488 14.1001 9.06561 13.688 9.10797 13.1374L9.29477 10.709L14.8284 16.2426C15.219 16.6332 15.8521 16.6332 16.2426 16.2426C16.6332 15.8521 16.6332 15.219 16.2426 14.8284L10.709 9.29477L13.1374 9.10797C13.688 9.06561 14.1001 8.58487 14.0577 8.03422C14.0154 7.48356 13.5346 7.0715 12.984 7.11386L8.38777 7.46741Z" fill="black" style="fill:black;fill:black;fill-opacity:1;"/>
</g>
</svg>
