<svg width="41" height="40" viewBox="0 0 41 40" fill="none" xmlns="http://www.w3.org/2000/svg">
<g id="CDS &#226;&#128;&#162; mic">
<path id="icon" fill-rule="evenodd" clip-rule="evenodd" d="M20.5007 2.5C15.8983 2.5 12.1673 6.23096 12.1673 10.8333V18.3333C12.1673 22.9357 15.8983 26.6667 20.5007 26.6667C25.103 26.6667 28.834 22.9357 28.834 18.3333V10.8333C28.834 6.23096 25.103 2.5 20.5007 2.5ZM9.66732 18.3314C9.66732 17.4109 8.92113 16.6647 8.00065 16.6647C7.08018 16.6647 6.33398 17.4109 6.33398 18.3314C6.33398 26.0529 11.8262 31.6408 18.834 32.4094V36.6667C18.834 37.5872 19.5802 38.3334 20.5007 38.3334C21.4211 38.3334 22.1673 37.5872 22.1673 36.6667V32.4094C29.1751 31.6408 34.6673 26.0529 34.6673 18.3314C34.6673 17.4109 33.9211 16.6647 33.0007 16.6647C32.0802 16.6647 31.334 17.4109 31.334 18.3314C31.334 24.7349 26.5241 29.1667 20.5007 29.1667C14.4772 29.1667 9.66732 24.7349 9.66732 18.3314Z" fill="#FDF251"/>
</g>
</svg>
