<svg width="33" height="32" viewBox="0 0 33 32" fill="none" xmlns="http://www.w3.org/2000/svg">
<path d="M24.113 6.30694C24.9684 6.0503 25.8294 6.69089 25.8294 7.58404V16.6284C25.0197 16.2224 24.0961 16 23.1628 16C20.4552 16 17.8294 17.872 17.8294 20.6666C17.8294 23.4613 20.4552 25.3333 23.1628 25.3333C25.8703 25.3333 28.4961 23.4613 28.4961 20.6666V7.58404C28.4961 4.90459 25.9132 2.9828 23.3467 3.75274L15.3467 6.15274C13.6548 6.66032 12.4961 8.21761 12.4961 9.98404V20.6284C11.6864 20.2224 10.7628 20 9.82943 20C7.12185 20 4.49609 21.872 4.49609 24.6666C4.49609 27.4613 7.12185 29.3333 9.82943 29.3333C12.537 29.3333 15.1628 27.4613 15.1628 24.6666L15.1628 9.98404C15.1628 9.39523 15.549 8.87614 16.113 8.70694L24.113 6.30694Z" fill="#0B0C11"/>
</svg>
