<svg width="24" height="24" viewBox="0 0 24 24" fill="none" xmlns="http://www.w3.org/2000/svg">
<g id="CDS &#226;&#128;&#162; arrow-circle-bottom-right">
<path id="Icon" fill-rule="evenodd" clip-rule="evenodd" d="M12 22C17.5228 22 22 17.5228 22 12C22 6.47715 17.5228 2 12 2C6.47715 2 2 6.47715 2 12C2 17.5228 6.47715 22 12 22ZM15.6122 16.5326C16.104 16.4948 16.4948 16.104 16.5326 15.6123L16.8862 11.0161C16.9285 10.4654 16.5165 9.98467 15.9658 9.94232C15.4151 9.89996 14.9344 10.312 14.892 10.8627L14.7052 13.2911L9.17159 7.75739C8.78106 7.36687 8.1479 7.36687 7.75737 7.75739C7.36685 8.14791 7.36685 8.78108 7.75737 9.1716L13.291 14.7053L10.8627 14.8921C10.312 14.9344 9.89994 15.4152 9.9423 15.9658C9.98466 16.5165 10.4654 16.9285 11.016 16.8862L15.6122 16.5326Z" fill="black" style="fill:black;fill:black;fill-opacity:1;"/>
</g>
</svg>
