<svg width="24" height="24" viewBox="0 0 24 24" fill="none" xmlns="http://www.w3.org/2000/svg">
<g id="CDS &#226;&#128;&#162; volume-off">
<path id="Icon" fill-rule="evenodd" clip-rule="evenodd" d="M13 5.43829C13 4.20734 11.6054 3.61349 10.6909 4.28029L6.49087 7.34244C6.35224 7.44352 6.18001 7.50044 6 7.50044H4.8C3.28045 7.50044 2 8.7051 2 10.2502V13.7498C2 15.295 3.28045 16.4996 4.8 16.4996H6C6.18001 16.4996 6.35224 16.5566 6.49087 16.6576L10.6909 19.7198C11.6054 20.3866 13 19.7928 13 18.5618V5.43829ZM16.7071 8.29295C16.3166 7.90243 15.6834 7.90243 15.2929 8.29295C14.9024 8.68348 14.9024 9.31664 15.2929 9.70717L17.5858 12.0001L15.2929 14.293C14.9024 14.6835 14.9024 15.3166 15.2929 15.7072C15.6834 16.0977 16.3166 16.0977 16.7071 15.7072L19 13.4143L21.2929 15.7072C21.6834 16.0977 22.3166 16.0977 22.7071 15.7072C23.0976 15.3166 23.0976 14.6835 22.7071 14.293L20.4142 12.0001L22.7071 9.70717C23.0976 9.31664 23.0976 8.68348 22.7071 8.29295C22.3166 7.90243 21.6834 7.90243 21.2929 8.29295L19 10.5858L16.7071 8.29295Z" fill="#0B0C11" style="fill:#0B0C11;fill:color(display-p3 0.0422 0.0475 0.0661);fill-opacity:1;"/>
</g>
</svg>
