<svg width="24" height="24" viewBox="0 0 24 24" fill="none" xmlns="http://www.w3.org/2000/svg">
<path fill-rule="evenodd" clip-rule="evenodd" d="M11.1576 2.87872C11.742 2.04384 12.9147 1.74205 13.8306 2.37181C14.7823 3.02616 16.428 4.29085 17.8444 6.06625C19.2602 7.84076 20.5 10.1941 20.5 12.9999C20.5 17.9973 16.7478 21.9999 12 21.9999C7.25223 21.9999 3.5 17.9973 3.5 12.9999C3.5 10.9645 4.37408 8.36394 6.07753 6.2877C6.82386 5.37804 8.11166 5.4323 8.86407 6.15513L11.1576 2.87872ZM12 19.9999C13.4497 19.9999 14.625 18.6584 14.625 17.0035C14.625 15.2278 13.2438 13.9216 12.4852 13.3381C12.1956 13.1153 11.8044 13.1153 11.5148 13.3381C10.7562 13.9216 9.375 15.2278 9.375 17.0035C9.375 18.6584 10.5503 19.9999 12 19.9999Z" fill="#0B0C11"/>
</svg>
