<svg width="24" height="24" viewBox="0 0 24 24" fill="none" xmlns="http://www.w3.org/2000/svg">
<path fill-rule="evenodd" clip-rule="evenodd" d="M19.4834 4.51662C20.1722 5.20545 20.1722 6.32225 19.4834 7.01108L14.4945 12L19.4834 16.9889C20.1722 17.6777 20.1722 18.7946 19.4834 19.4834C18.7946 20.1722 17.6777 20.1722 16.9889 19.4834L12 14.4945L7.01108 19.4834C6.32225 20.1722 5.20545 20.1722 4.51662 19.4834C3.82779 18.7946 3.82779 17.6777 4.51662 16.9889L9.50554 12L4.51662 7.01108C3.82779 6.32225 3.82779 5.20545 4.51662 4.51662C5.20545 3.82779 6.32225 3.82779 7.01108 4.51662L12 9.50554L16.9889 4.51662C17.6777 3.82779 18.7946 3.82779 19.4834 4.51662Z" fill="#0B0C11"/>
</svg>
