<svg width="24" height="24" viewBox="0 0 24 24" fill="none" xmlns="http://www.w3.org/2000/svg">
<path fill-rule="evenodd" clip-rule="evenodd" d="M11.5528 3.10557C11.8343 2.96481 12.1657 2.96481 12.4472 3.10557L22.4472 8.10557C22.786 8.27497 23 8.62123 23 9V15C23 15.5523 22.5523 16 22 16C21.4477 16 21 15.5523 21 15V10.618L12.4472 14.8944C12.1657 15.0352 11.8343 15.0352 11.5528 14.8944L1.55279 9.89443C1.214 9.72503 1 9.37877 1 9C1 8.62123 1.214 8.27497 1.55279 8.10557L11.5528 3.10557ZM5 16.632V13.8533L10.6602 16.6834C11.5047 17.1057 12.4989 17.1057 13.3434 16.6834L19 13.8551V16.632C19 17.3895 18.572 18.0821 17.8944 18.4208L12.8944 20.9208C12.3314 21.2024 11.6686 21.2024 11.1056 20.9208L6.10557 18.4208C5.428 18.0821 5 17.3895 5 16.632Z" fill="#0B0C11"/>
</svg>
