<svg width="24" height="24" viewBox="0 0 24 24" fill="none" xmlns="http://www.w3.org/2000/svg">
<path fill-rule="evenodd" clip-rule="evenodd" d="M13 5.43829C13 4.20734 11.6054 3.61349 10.6909 4.28029L6.49087 7.34244C6.35224 7.44352 6.18001 7.50044 6 7.50044H4.8C3.28045 7.50044 2 8.7051 2 10.2502V13.7498C2 15.295 3.28045 16.4996 4.8 16.4996H6C6.18001 16.4996 6.35224 16.5566 6.49087 16.6576L10.6909 19.7198C11.6054 20.3866 13 19.7928 13 18.5618V5.43829ZM19.3234 5.30593C18.94 4.90837 18.3069 4.89686 17.9094 5.28021C17.5118 5.66357 17.5003 6.29663 17.8837 6.69419C19.1883 8.04714 20 9.92106 20 12.0001C20 14.0791 19.1883 15.953 17.8837 17.3059C17.5003 17.7035 17.5118 18.3366 17.9094 18.7199C18.3069 19.1033 18.94 19.0918 19.3234 18.6942C20.9801 16.9761 22 14.6074 22 12.0001C22 9.39277 20.9801 7.02405 19.3234 5.30593ZM16.7198 8.00564C16.3365 7.60808 15.7034 7.59657 15.3059 7.97993C14.9083 8.36328 14.8968 8.99634 15.2802 9.39391C15.9185 10.0559 16.3181 10.9752 16.3181 11.9998C16.3181 13.0244 15.9185 13.9437 15.2802 14.6056C14.8968 15.0032 14.9083 15.6363 15.3059 16.0196C15.7034 16.403 16.3365 16.3915 16.7198 15.9939C17.7103 14.9668 18.3181 13.5527 18.3181 11.9998C18.3181 10.4469 17.7103 9.03277 16.7198 8.00564Z" fill="#0B0C11"/>
</svg>
