<svg width="16" height="16" viewBox="0 0 16 16" fill="none" xmlns="http://www.w3.org/2000/svg">
<path fill-rule="evenodd" clip-rule="evenodd" d="M7.58787 1.82033C7.92946 1.33486 8.6065 1.16407 9.1345 1.52363C9.77579 1.96034 10.8979 2.81348 11.8641 4.01251C12.8298 5.21094 13.6673 6.79024 13.6673 8.66638C13.6673 11.9103 11.1614 14.6664 8.00065 14.6664C4.83991 14.6664 2.33398 11.9103 2.33398 8.66638C2.33398 7.31613 2.9201 5.57604 4.06897 4.18456C4.51162 3.64844 5.28073 3.68583 5.72444 4.12668C5.79925 4.20101 5.92156 4.18848 5.97971 4.10584L7.58787 1.82033ZM8.00013 13.6664C9.03106 13.6664 9.8668 12.7082 9.8668 11.5261C9.8668 10.2417 8.85965 9.30123 8.32493 8.89242C8.13067 8.74391 7.86959 8.74391 7.67533 8.89242C7.14061 9.30123 6.13346 10.2417 6.13346 11.5261C6.13346 12.7082 6.9692 13.6664 8.00013 13.6664Z" fill="#0B0C11" fill-opacity="0.66"/>
</svg>
