<svg width="24" height="24" viewBox="0 0 24 24" fill="none" xmlns="http://www.w3.org/2000/svg">
<path d="M3.5 7C3.5 4.79086 5.29086 3 7.5 3C9.70914 3 11.5 4.79086 11.5 7C11.5 9.20914 9.70914 11 7.5 11C5.29086 11 3.5 9.20914 3.5 7Z" fill="#0B0C11"/>
<path d="M12.5 7C12.5 4.79086 14.2909 3 16.5 3C18.7091 3 20.5 4.79086 20.5 7C20.5 9.20914 18.7091 11 16.5 11C14.2909 11 12.5 9.20914 12.5 7Z" fill="#0B0C11"/>
<path d="M7.49987 12C10.6785 12 13.6398 14.4136 14.3615 18.7665C14.5672 20.0073 13.5628 21 12.4269 21H2.57284C1.43696 21 0.432549 20.0073 0.638257 18.7665C1.35991 14.4136 4.32121 12 7.49987 12Z" fill="#0B0C11"/>
<path d="M16.3347 18.4394C15.9465 16.0977 14.9771 14.1398 13.6288 12.7012C14.5225 12.2386 15.5005 12 16.5 12C19.6786 12 22.6399 14.4136 23.3616 18.7665C23.5673 20.0073 22.5629 21 21.427 21H15.8888C16.3045 20.2794 16.4945 19.4035 16.3347 18.4394Z" fill="#0B0C11"/>
</svg>
