<svg width="24" height="24" viewBox="0 0 24 24" fill="none" xmlns="http://www.w3.org/2000/svg">
<path fill-rule="evenodd" clip-rule="evenodd" d="M5.95123 2.99707C6.50352 2.99707 6.95123 3.44479 6.95123 3.99707V9.99999C6.95123 10.5523 6.50352 11 5.95123 11C5.39895 11 4.95123 10.5523 4.95123 9.99999V3.99707C4.95123 3.44479 5.39895 2.99707 5.95123 2.99707ZM11.9998 2.99707C12.5521 2.99707 12.9998 3.44479 12.9998 3.99707V7.99902H13.955C14.5072 7.99902 14.955 8.44674 14.955 8.99902C14.955 9.55131 14.5072 9.99902 13.955 9.99902H12.0161C12.0107 9.99911 12.0053 9.99915 11.9998 9.99915C11.9944 9.99915 11.989 9.99911 11.9835 9.99902H10.0446C9.49233 9.99902 9.04462 9.55131 9.04462 8.99902C9.04462 8.44674 9.49233 7.99902 10.0446 7.99902H10.9998V3.99707C10.9998 3.44479 11.4476 2.99707 11.9998 2.99707ZM18.0484 2.99707C18.6007 2.99707 19.0484 3.44479 19.0484 3.99707V12.0008C19.0484 12.5531 18.6007 13.0008 18.0484 13.0008C17.4961 13.0008 17.0484 12.5531 17.0484 12.0008V3.99707C17.0484 3.44479 17.4961 2.99707 18.0484 2.99707ZM11.9998 12.0005C12.5521 12.0005 12.9998 12.4482 12.9998 13.0005V20.0038C12.9998 20.5561 12.5521 21.0038 11.9998 21.0038C11.4475 21.0038 10.9998 20.5561 10.9998 20.0038V13.0005C10.9998 12.4482 11.4475 12.0005 11.9998 12.0005ZM2.99609 14.0015C2.99609 13.4492 3.44381 13.0015 3.99609 13.0015H7.90643C8.45871 13.0015 8.90643 13.4492 8.90643 14.0015C8.90643 14.5538 8.45871 15.0015 7.90643 15.0015H6.95123V20.004C6.95123 20.5562 6.50352 21.004 5.95123 21.004C5.39895 21.004 4.95123 20.5562 4.95123 20.004V15.0015H3.99609C3.44381 15.0015 2.99609 14.5538 2.99609 14.0015ZM15.0932 16.002C15.0932 15.4497 15.5409 15.002 16.0932 15.002H20.0035C20.5558 15.002 21.0035 15.4497 21.0035 16.002C21.0035 16.5542 20.5558 17.002 20.0035 17.002H19.0484V20.0036C19.0484 20.5559 18.6007 21.0036 18.0484 21.0036C17.4961 21.0036 17.0484 20.5559 17.0484 20.0036V17.002H16.0932C15.5409 17.002 15.0932 16.5542 15.0932 16.002Z" fill="#0B0C11"/>
</svg>
