<svg width="24" height="24" viewBox="0 0 24 24" fill="none" xmlns="http://www.w3.org/2000/svg">
<path fill-rule="evenodd" clip-rule="evenodd" d="M19.5674 5.35691C17.6899 3.79161 15.0647 3 12 3C8.93532 3 6.31015 3.79161 4.43258 5.35691C2.53317 6.94042 1.50001 9.23347 1.50001 12C1.50001 12.8165 1.76934 13.8187 2.0126 14.578C2.26608 15.3691 2.53706 16.0322 2.61364 16.2158L2.62642 16.2461L2.6341 16.2641L2.63604 16.2688C2.64543 16.2957 2.72638 16.544 2.66855 16.9774C2.60848 17.4277 2.39154 18.1318 1.70314 19.0398C1.5212 19.2797 1.45709 19.5889 1.52864 19.8815C1.60018 20.174 1.79975 20.4187 2.07192 20.5477C3.45903 21.2047 4.84475 20.9717 5.79596 20.6417C6.25233 20.4834 6.63664 20.2938 6.91575 20.1378C8.55744 20.8505 10.3807 21 12 21C15.0647 21 17.6899 20.2084 19.5674 18.6431C21.4668 17.0596 22.5 14.7665 22.5 12C22.5 9.23347 21.4668 6.94042 19.5674 5.35691ZM2.63604 16.2688L2.63523 16.2665L2.6367 16.2704L2.63604 16.2688ZM12.9974 9.03394C12.9974 8.48165 12.5497 8.03394 11.9974 8.03394C11.4451 8.03394 10.9974 8.48165 10.9974 9.03394V15.0339C10.9974 15.5862 11.4451 16.0339 11.9974 16.0339C12.5497 16.0339 12.9974 15.5862 12.9974 15.0339V9.03394ZM9.49817 11.0339C9.49817 10.4817 9.05045 10.0339 8.49817 10.0339C7.94588 10.0339 7.49817 10.4817 7.49817 11.0339V13.0339C7.49817 13.5862 7.94588 14.0339 8.49817 14.0339C9.05045 14.0339 9.49817 13.5862 9.49817 13.0339V11.0339ZM16.5018 11.0339C16.5018 10.4817 16.0541 10.0339 15.5018 10.0339C14.9495 10.0339 14.5018 10.4817 14.5018 11.0339V13.0339C14.5018 13.5862 14.9495 14.0339 15.5018 14.0339C16.0541 14.0339 16.5018 13.5862 16.5018 13.0339V11.0339Z" fill="#0B0C11"/>
</svg>
