<svg width="24" height="24" viewBox="0 0 24 24" fill="none" xmlns="http://www.w3.org/2000/svg">
<path fill-rule="evenodd" clip-rule="evenodd" d="M12 22C17.5228 22 22 17.5228 22 12C22 6.47715 17.5228 2 12 2C6.47715 2 2 6.47715 2 12C2 17.5228 6.47715 22 12 22ZM12.6508 6.24074C12.2763 5.91975 11.7237 5.91975 11.3492 6.24074L7.84921 9.24074C7.42989 9.60017 7.38132 10.2315 7.74075 10.6508C8.10017 11.0701 8.73147 11.1187 9.15079 10.7593L11 9.17422L11 17C11 17.5523 11.4477 18 12 18C12.5523 18 13 17.5523 13 17L13 9.17422L14.8492 10.7593C15.2685 11.1187 15.8998 11.0701 16.2593 10.6508C16.6187 10.2315 16.5701 9.60017 16.1508 9.24074L12.6508 6.24074Z" fill="#0B0C11"/>
</svg>
