<svg width="32" height="33" viewBox="0 0 32 33" fill="none" xmlns="http://www.w3.org/2000/svg">
<g id="two dice, game, random">
<g id="Icon">
<path fill-rule="evenodd" clip-rule="evenodd" d="M19.3993 15.454C17.3233 14.6984 16.253 12.403 17.0086 10.3271L18.3767 6.56834C19.1322 4.49243 21.4276 3.42208 23.5035 4.17765L27.2623 5.54573C29.3382 6.3013 30.4085 8.59667 29.653 10.6726L28.2849 14.4314C27.5293 16.5073 25.2339 17.5776 23.158 16.822L19.3993 15.454ZM22.8772 11.7529C23.5692 12.0047 24.3343 11.648 24.5861 10.956C24.838 10.264 24.4812 9.4989 23.7892 9.24704C23.0973 8.99519 22.3322 9.35197 22.0803 10.0439C21.8284 10.7359 22.1852 11.501 22.8772 11.7529Z" fill="#0B0C11"/>
<path fill-rule="evenodd" clip-rule="evenodd" d="M3.88031 14.5958C1.87815 15.5294 1.01193 17.9094 1.94555 19.9115L4.763 25.9536C5.69663 27.9557 8.07655 28.822 10.0787 27.8883L16.1208 25.0709C18.1229 24.1373 18.9891 21.7573 18.0555 19.7552L15.2381 13.7131C14.3044 11.711 11.9245 10.8447 9.92236 11.7784L3.88031 14.5958ZM8.54789 18.3025C8.85909 18.9698 8.57035 19.7632 7.90297 20.0744C7.23558 20.3856 6.44227 20.0968 6.13107 19.4294C5.81986 18.7621 6.1086 17.9687 6.77598 17.6575C7.44337 17.3463 8.23668 17.6351 8.54789 18.3025ZM13.2207 22.0093C13.8881 21.698 14.1768 20.9047 13.8656 20.2374C13.5544 19.57 12.7611 19.2812 12.0937 19.5924C11.4263 19.9036 11.1376 20.6969 11.4488 21.3643C11.76 22.0317 12.5533 22.3205 13.2207 22.0093Z" fill="#0B0C11"/>
</g>
</g>
</svg>
