<svg width="16" height="16" viewBox="0 0 16 16" fill="none" xmlns="http://www.w3.org/2000/svg">
<path d="M3.33268 8.79507L7.31554 10.8351C7.74489 11.055 8.25381 11.055 8.68316 10.8351L12.666 8.79507V10.6075C12.666 11.2791 12.2988 11.897 11.7088 12.2179L8.87544 13.7593C8.32918 14.0564 7.66952 14.0564 7.12326 13.7593L4.28993 12.2179C3.69994 11.897 3.33268 11.2791 3.33268 10.6075V8.79507Z" fill="#0B0C11" fill-opacity="0.66"/>
<path d="M7.77141 9.94502C7.91453 10.0183 8.08417 10.0183 8.22729 9.94502L14.3327 6.81787V10.1667C14.3327 10.4428 14.5565 10.6667 14.8327 10.6667C15.1088 10.6667 15.3327 10.4428 15.3327 10.1667V6C15.3327 5.81236 15.2276 5.64052 15.0606 5.55498L8.22729 2.05498C8.08417 1.98167 7.91453 1.98167 7.77141 2.05498L0.938078 5.55498C0.771071 5.64052 0.666016 5.81236 0.666016 6C0.666016 6.18764 0.771071 6.35948 0.938078 6.44502L7.77141 9.94502Z" fill="#0B0C11" fill-opacity="0.66"/>
</svg>
