<svg width="24" height="24" viewBox="0 0 24 24" fill="none" xmlns="http://www.w3.org/2000/svg">
<path fill-rule="evenodd" clip-rule="evenodd" d="M12 22C17.5228 22 22 17.5228 22 12C22 6.47715 17.5228 2 12 2C6.47715 2 2 6.47715 2 12C2 17.5228 6.47715 22 12 22ZM6.24075 11.3492C5.91976 11.7237 5.91976 12.2763 6.24075 12.6508L9.24075 16.1508C9.60017 16.5701 10.2315 16.6187 10.6508 16.2593C11.0701 15.8998 11.1187 15.2685 10.7593 14.8492L9.17423 13L17 13C17.5523 13 18 12.5523 18 12C18 11.4477 17.5523 11 17 11L9.17423 11L10.7593 9.1508C11.1187 8.73147 11.0701 8.10017 10.6508 7.74075C10.2315 7.38133 9.60017 7.42989 9.24075 7.84922L6.24075 11.3492Z" fill="#0B0C11"/>
</svg>
