<svg width="16" height="16" viewBox="0 0 16 16" fill="none" xmlns="http://www.w3.org/2000/svg">
<path d="M6.11505 2.11413C7.15641 1.07371 8.84428 1.07239 9.88612 2.11431C10.9276 3.15589 10.9279 4.8449 9.88594 5.88589C9.49315 6.27832 9.00821 6.52295 8.50065 6.61949V11.5C8.50065 11.7762 8.27679 12 8.00065 12C7.72451 12 7.50065 11.7762 7.50065 11.5V6.61983C6.99283 6.52357 6.50764 6.27889 6.1147 5.88554C5.07448 4.84422 5.0729 3.15534 6.11505 2.11413Z" fill="#0B0C11" fill-opacity="0.66"/>
<path d="M6.06945 9.79602C6.34297 9.75802 6.53389 9.50549 6.4959 9.23197C6.4579 8.95846 6.20537 8.76753 5.93185 8.80553C4.68093 8.97931 3.57427 9.31009 2.76464 9.76188C1.98403 10.1975 1.33398 10.8342 1.33398 11.6664C1.33398 12.1908 1.59824 12.6416 1.97261 13.0004C2.34567 13.358 2.85904 13.657 3.45231 13.8975C4.64142 14.3796 6.24974 14.6664 8.00065 14.6664C9.75156 14.6664 11.3599 14.3796 12.549 13.8975C13.1423 13.657 13.6556 13.358 14.0287 13.0004C14.4031 12.6416 14.6673 12.1908 14.6673 11.6664C14.6673 10.8342 14.0173 10.1975 13.2367 9.76188C12.427 9.31009 11.3204 8.97931 10.0695 8.80553C9.79594 8.76753 9.5434 8.95846 9.50541 9.23197C9.46741 9.50549 9.65834 9.75802 9.93185 9.79602C11.105 9.95899 12.0817 10.2625 12.7494 10.6351C13.4461 11.0239 13.6673 11.4016 13.6673 11.6664C13.6673 11.8323 13.5865 12.0391 13.3367 12.2785C13.0857 12.5191 12.696 12.7589 12.1733 12.9708C11.1305 13.3935 9.6555 13.6664 8.00065 13.6664C6.34581 13.6664 4.8708 13.3935 3.82801 12.9708C3.30533 12.7589 2.91561 12.5191 2.66457 12.2785C2.41485 12.0391 2.33398 11.8323 2.33398 11.6664C2.33398 11.4016 2.55523 11.0239 3.25193 10.6351C3.9196 10.2625 4.89628 9.95899 6.06945 9.79602Z" fill="#0B0C11" fill-opacity="0.66"/>
</svg>
