<svg width="24" height="24" viewBox="0 0 24 24" fill="none" xmlns="http://www.w3.org/2000/svg">
<g id="CDS &#226;&#128;&#162; arrow-circle-bottom-left">
<path id="Icon" fill-rule="evenodd" clip-rule="evenodd" d="M12 22C17.5228 22 22 17.5228 22 12C22 6.47715 17.5228 2 12 2C6.47715 2 2 6.47715 2 12C2 17.5228 6.47715 22 12 22ZM7.46742 15.6122C7.50525 16.104 7.896 16.4948 8.38778 16.5326L12.984 16.8862C13.5346 16.9285 14.0154 16.5165 14.0577 15.9658C14.1001 15.4151 13.688 14.9344 13.1374 14.892L10.709 14.7052L16.2426 9.17159C16.6332 8.78106 16.6332 8.1479 16.2426 7.75737C15.8521 7.36685 15.219 7.36685 14.8284 7.75737L9.29477 13.291L9.10798 10.8627C9.06562 10.312 8.58488 9.89994 8.03422 9.9423C7.48357 9.98466 7.07151 10.4654 7.11387 11.016L7.46742 15.6122Z" fill="black" style="fill:black;fill:black;fill-opacity:1;"/>
</g>
</svg>
