<svg width="32" height="32" viewBox="0 0 32 32" fill="none" xmlns="http://www.w3.org/2000/svg">
<path fill-rule="evenodd" clip-rule="evenodd" d="M15.9993 2.66666C8.63555 2.66666 2.66602 8.63619 2.66602 16C2.66602 23.3638 8.63555 29.3333 15.9993 29.3333C23.3631 29.3333 29.3327 23.3638 29.3327 16C29.3327 8.63619 23.3631 2.66666 15.9993 2.66666ZM21.0313 13.511C21.4976 12.9411 21.4136 12.1011 20.8437 11.6348C20.2737 11.1685 19.4337 11.2525 18.9674 11.8224L13.9004 18.0154L12.2755 16.3906C11.7548 15.8699 10.9106 15.8699 10.3899 16.3906C9.86917 16.9113 9.86917 17.7555 10.3899 18.2762L13.0565 20.9428C13.3229 21.2092 13.6895 21.3505 14.0658 21.3317C14.442 21.3129 14.7927 21.1359 15.0313 20.8443L21.0313 13.511Z" fill="#43974C"/>
</svg>
