<svg width="21" height="21" viewBox="0 0 21 21" fill="none" xmlns="http://www.w3.org/2000/svg">
<path fill-rule="evenodd" clip-rule="evenodd" d="M11.1973 8.51378C8.75452 10.9582 6.71342 12.9571 6.66176 12.9558C6.61009 12.9545 6.15896 12.3253 5.65933 11.5573C4.67341 10.0419 4.21916 9.62489 3.55509 9.62489C2.9999 9.62489 2.21582 10.4101 2.21582 10.966C2.21582 11.5732 5.33544 16.1416 5.94878 16.4323C6.28155 16.5901 6.58137 16.6103 6.8747 16.4943C7.11322 16.4001 9.62082 14.0001 12.4473 11.1608C17.0355 6.55174 17.5862 5.93489 17.5862 5.40433C17.5862 4.62896 17.0227 4.06934 16.2421 4.06934C15.7014 4.06934 15.1788 4.52971 11.1973 8.51378Z" fill="#0B0C11"/>
</svg>
