<svg width="16" height="16" viewBox="0 0 16 16" fill="none" xmlns="http://www.w3.org/2000/svg">
<g clip-path="url(#clip0_2079_20699)">
<path d="M10.4993 5.16666C10.4993 4.89051 10.2755 4.66666 9.99935 4.66666C9.72321 4.66666 9.49935 4.89051 9.49935 5.16666C9.49935 6.78386 9.14209 7.83417 8.48781 8.48845C7.83353 9.14273 6.78322 9.49999 5.16602 9.49999C4.88987 9.49999 4.66602 9.72385 4.66602 9.99999C4.66602 10.2761 4.88987 10.5 5.16602 10.5C6.78322 10.5 7.83353 10.8572 8.48781 11.5115C9.14209 12.1658 9.49935 13.2161 9.49935 14.8333C9.49935 15.1095 9.72321 15.3333 9.99935 15.3333C10.2755 15.3333 10.4993 15.1095 10.4993 14.8333C10.4993 13.2161 10.8566 12.1658 11.5109 11.5115C12.1652 10.8572 13.2155 10.5 14.8327 10.5C15.1088 10.5 15.3327 10.2761 15.3327 9.99999C15.3327 9.72385 15.1088 9.49999 14.8327 9.49999C13.2155 9.49999 12.1652 9.14273 11.5109 8.48845C10.8566 7.83417 10.4993 6.78386 10.4993 5.16666Z" fill="#0B0C11" fill-opacity="0.66"/>
<path d="M4.83268 1.16666C4.83268 0.890514 4.60882 0.666656 4.33268 0.666656C4.05654 0.666656 3.83268 0.890514 3.83268 1.16666C3.83268 2.20516 3.60274 2.8388 3.22045 3.22109C2.83816 3.60338 2.20452 3.83332 1.16602 3.83332C0.889873 3.83332 0.666016 4.05718 0.666016 4.33332C0.666016 4.60947 0.889873 4.83332 1.16602 4.83332C2.20452 4.83332 2.83816 5.06327 3.22045 5.44556C3.60274 5.82785 3.83268 6.46149 3.83268 7.49999C3.83268 7.77613 4.05654 7.99999 4.33268 7.99999C4.60882 7.99999 4.83268 7.77613 4.83268 7.49999C4.83268 6.46149 5.06262 5.82785 5.44492 5.44556C5.82721 5.06327 6.46085 4.83332 7.49935 4.83332C7.77549 4.83332 7.99935 4.60947 7.99935 4.33332C7.99935 4.05718 7.77549 3.83332 7.49935 3.83332C6.46085 3.83332 5.82721 3.60338 5.44492 3.22109C5.06262 2.8388 4.83268 2.20516 4.83268 1.16666Z" fill="#0B0C11" fill-opacity="0.66"/>
</g>
<defs>
<clipPath id="clip0_2079_20699">
<rect width="16" height="16" fill="white"/>
</clipPath>
</defs>
</svg>
