<svg width="24" height="24" viewBox="0 0 24 24" fill="none" xmlns="http://www.w3.org/2000/svg">
<path fill-rule="evenodd" clip-rule="evenodd" d="M12 22C17.5228 22 22 17.5228 22 12C22 6.47715 17.5228 2 12 2C6.47715 2 2 6.47715 2 12C2 17.5228 6.47715 22 12 22ZM7.84922 14.7593L11.3492 17.7593C11.7237 18.0803 12.2763 18.0803 12.6508 17.7593L16.1508 14.7593C16.5701 14.3999 16.6187 13.7686 16.2593 13.3492C15.8998 12.9299 15.2685 12.8813 14.8492 13.2408L13 14.8258V7.00002C13 6.44773 12.5523 6.00002 12 6.00002C11.4477 6.00002 11 6.44773 11 7.00002V14.8258L9.1508 13.2408C8.73147 12.8813 8.10017 12.9299 7.74075 13.3492C7.38133 13.7686 7.42989 14.3999 7.84922 14.7593Z" fill="#0B0C11"/>
</svg>
