<svg width="24" height="24" viewBox="0 0 24 24" fill="none" xmlns="http://www.w3.org/2000/svg">
<path fill-rule="evenodd" clip-rule="evenodd" d="M15.2671 7.49271C15.2671 9.29696 13.8044 10.7596 12.0002 10.7596C10.1959 10.7596 8.73331 9.29696 8.73331 7.49271C8.73331 5.68846 10.1959 4.22583 12.0002 4.22583C13.8044 4.22583 15.2671 5.68846 15.2671 7.49271ZM17.5406 12.1237C17.1358 12.2502 16.7504 12.4407 16.3954 12.6922C17.1842 13.5234 17.7958 14.5987 18.1508 15.8718C18.3658 16.642 18.2937 17.3749 18.0295 18.0045H20.8906C21.5015 18.0045 22.0983 17.7344 22.5001 17.2864C22.9124 16.8273 23.1207 16.1762 22.9221 15.4633C22.4354 13.7199 21.2857 12.5508 19.9151 12.1245C19.1338 11.9466 18.3219 11.9466 17.5406 12.1237ZM21.1823 8.82432C21.1823 10.1622 20.0981 11.2464 18.7602 11.2464C17.4223 11.2464 16.3381 10.1622 16.3381 8.82432C16.3381 7.4864 17.4223 6.40222 18.7602 6.40222C20.0981 6.40222 21.1823 7.4864 21.1823 8.82432ZM10.4621 11.7461C8.68602 12.299 7.19573 13.8141 6.56557 16.0729C6.30775 16.9971 6.57808 17.8402 7.11187 18.435C7.63259 19.0152 8.40606 19.3656 9.1979 19.3656H14.8026C15.5944 19.3656 16.3679 19.0152 16.8886 18.435C17.4224 17.8402 17.6927 16.9971 17.4349 16.0729C16.8048 13.8142 15.3146 12.2992 13.5386 11.7462C12.526 11.5163 11.4747 11.5163 10.4621 11.7461ZM5.96865 18.0037H3.10827C2.49735 18.0037 1.90057 17.7336 1.49875 17.2857C1.08651 16.8265 0.878153 16.1762 1.07683 15.4626C1.56348 13.7191 2.71314 12.5501 4.0838 12.1237C4.86512 11.9459 5.67695 11.9459 6.45827 12.1237C6.86308 12.2495 7.24853 12.4407 7.60347 12.6915C6.81471 13.5227 6.20304 14.5987 5.84736 15.8718C5.63305 16.642 5.70449 17.375 5.96865 18.0037ZM5.30341 11.2464C6.64133 11.2464 7.7255 10.1622 7.7255 8.82432C7.7255 7.4864 6.64133 6.40222 5.30341 6.40222C3.96549 6.40222 2.88131 7.4864 2.88131 8.82432C2.88131 10.1622 3.96549 11.2464 5.30341 11.2464Z" fill="#0B0C11"/>
</svg>
