<svg width="24" height="24" viewBox="0 0 24 24" fill="none" xmlns="http://www.w3.org/2000/svg">
<path fill-rule="evenodd" clip-rule="evenodd" d="M17 2C14.2386 2 12 4.23858 12 7C12 9.76142 14.2386 12 17 12C19.7614 12 22 9.76142 22 7C22 4.23858 19.7614 2 17 2ZM17.7143 5.21429C17.7143 4.8198 17.3945 4.5 17 4.5C16.6055 4.5 16.2857 4.8198 16.2857 5.21429V7C16.2857 7.18944 16.361 7.37112 16.4949 7.50508L18.0467 9.05688C18.3257 9.33583 18.7779 9.33583 19.0569 9.05688C19.3358 8.77794 19.3358 8.32567 19.0569 8.04673L17.7143 6.70413V5.21429ZM4.90874 4C3.28006 4 1.79988 5.35173 2.02223 7.1385C2.98566 14.8803 9.11967 21.0143 16.8615 21.9778C18.6483 22.2001 20 20.7199 20 19.0913V17.7713C20 16.4385 19.1257 15.2634 17.849 14.8804L16.3091 14.4184C15.3076 14.118 14.222 14.3917 13.4827 15.131C13.2145 15.3992 12.8697 15.4161 12.651 15.2807C11.0554 14.2935 9.70655 12.9446 8.71926 11.349C8.58393 11.1303 8.60081 10.7855 8.86899 10.5173C9.60835 9.77797 9.88204 8.69237 9.58159 7.69087L9.11962 6.15096C8.73662 4.87429 7.56155 4 6.22866 4H4.90874Z" fill="#0B0C11"/>
</svg>
