<svg width="24" height="24" viewBox="0 0 24 24" fill="none" xmlns="http://www.w3.org/2000/svg">
<path fill-rule="evenodd" clip-rule="evenodd" d="M12 1.5C9.23858 1.5 7 3.73858 7 6.5V11C7 13.7614 9.23858 16 12 16C14.7614 16 17 13.7614 17 11V6.5C17 3.73858 14.7614 1.5 12 1.5ZM5.5 10.9988C5.5 10.4466 5.05228 9.99885 4.5 9.99885C3.94772 9.99885 3.5 10.4466 3.5 10.9988C3.5 15.6317 6.79534 18.9845 11 19.4456V22C11 22.5523 11.4477 23 12 23C12.5523 23 13 22.5523 13 22V19.4456C17.2047 18.9845 20.5 15.6317 20.5 10.9988C20.5 10.4466 20.0523 9.99885 19.5 9.99885C18.9477 9.99885 18.5 10.4466 18.5 10.9988C18.5 14.8409 15.6141 17.5 12 17.5C8.38592 17.5 5.5 14.8409 5.5 10.9988Z" fill="black"/>
</svg>
