<svg width="24" height="24" viewBox="0 0 24 24" fill="none" xmlns="http://www.w3.org/2000/svg">
<path fill-rule="evenodd" clip-rule="evenodd" d="M2 12C2 17.5228 6.47715 22 12 22C17.5228 22 22 17.5228 22 12C22 6.47715 17.5228 2 12 2C6.47715 2 2 6.47715 2 12ZM17.2991 11.3825C17.8113 10.8567 17.8113 10.0042 17.2991 9.47845C16.7869 8.95266 15.9565 8.95266 15.4443 9.47845L12 13.0143L8.55567 9.47845C8.04349 8.95266 7.21308 8.95266 6.70091 9.47845C6.18873 10.0042 6.18873 10.8567 6.70091 11.3825L10.7635 15.5531C11.4464 16.2541 12.5536 16.2541 13.2365 15.5531L17.2991 11.3825Z" fill="white"/>
</svg>
