<svg width="16" height="13" viewBox="0 0 16 13" fill="none" xmlns="http://www.w3.org/2000/svg">
<path d="M2.66667 2.736C2.66667 1.26324 3.86057 0.0693359 5.33333 0.0693359C6.80609 0.0693359 8 1.26324 8 2.736C8 4.20876 6.80609 5.40267 5.33333 5.40267C3.86057 5.40267 2.66667 4.20876 2.66667 2.736Z" fill="#0B0C11" fill-opacity="0.66"/>
<path d="M9 3.06934C9 1.78067 10.0447 0.736003 11.3333 0.736003C12.622 0.736003 13.6667 1.78067 13.6667 3.06934C13.6667 4.358 12.622 5.40267 11.3333 5.40267C10.0447 5.40267 9 4.358 9 3.06934Z" fill="#0B0C11" fill-opacity="0.66"/>
<path d="M5.33347 6.06934C4.15677 6.06934 3.17601 6.49244 2.42338 7.21608C1.67887 7.93191 1.17825 8.92055 0.902348 10.033C0.622378 11.1618 1.56811 12.0693 2.60118 12.0693H8.06575C9.09882 12.0693 10.0446 11.1618 9.76459 10.033C9.48868 8.92055 8.98806 7.93191 8.24355 7.21608C7.49092 6.49244 6.51016 6.06934 5.33347 6.06934Z" fill="#0B0C11" fill-opacity="0.66"/>
<path d="M9.44985 6.54587C10.2564 7.4375 10.7714 8.55352 11.0588 9.71202C11.2132 10.3346 11.1703 10.9056 10.9903 11.4027H13.5639C14.5891 11.4027 15.5612 10.4924 15.2366 9.3527C14.7077 7.49588 13.4041 6.06934 11.3332 6.06934C10.6124 6.06934 9.98446 6.24219 9.44985 6.54587Z" fill="#0B0C11" fill-opacity="0.66"/>
</svg>
