<svg width="24" height="25" viewBox="0 0 24 25" fill="none" xmlns="http://www.w3.org/2000/svg">
<rect y="0.25" width="24" height="24" rx="6" fill="url(#paint0_linear_1664_123741)"/>
<path fill-rule="evenodd" clip-rule="evenodd" d="M17.7807 17.2734C18.0446 16.9541 17.9527 16.485 17.61 16.2524L12.5057 12.7877C12.0832 12.501 12.0646 11.8851 12.4688 11.5733L17.3537 7.80557C17.6817 7.55259 17.745 7.07878 17.4622 6.77607C16.4922 5.73752 15.2582 4.97421 13.8857 4.57201C12.2725 4.09927 10.551 4.14972 8.96824 4.71614C7.38548 5.28255 6.02285 6.33581 5.07588 7.72476C4.1289 9.11371 3.64628 10.767 3.69726 12.4472C3.74825 14.1275 4.33022 15.7484 5.35965 17.0774C6.38909 18.4064 7.81308 19.3751 9.42726 19.8445C11.0414 20.3139 12.7628 20.2599 14.3444 19.6903C15.69 19.2056 16.8755 18.3689 17.7807 17.2734ZM11.8696 8.99732C12.4798 8.99732 12.9744 8.50266 12.9744 7.89246C12.9744 7.28226 12.4798 6.7876 11.8696 6.7876C11.2594 6.7876 10.7647 7.28226 10.7647 7.89246C10.7647 8.50266 11.2594 8.99732 11.8696 8.99732Z" fill="#F8F8FE"/>
<circle cx="15.8799" cy="12.2056" r="0.805232" fill="#C3BDF6"/>
<circle cx="19.0355" cy="12.2064" r="1.27081" fill="#DDDAFA"/>
<defs>
<linearGradient id="paint0_linear_1664_123741" x1="-10.9286" y1="-8.53571" x2="26.7857" y2="25.9643" gradientUnits="userSpaceOnUse">
<stop offset="0.195275" stop-color="#8B8BED"/>
<stop offset="0.534202" stop-color="#756EE0"/>
<stop offset="0.863632" stop-color="#4935EA"/>
</linearGradient>
</defs>
</svg>
