<svg width="24" height="25" viewBox="0 0 24 25" fill="none" xmlns="http://www.w3.org/2000/svg">
<rect y="0.25" width="24" height="24" rx="6" fill="url(#paint0_linear_1664_123947)"/>
<path d="M18.617 13.9285V12.4465C18.617 11.4719 17.8269 10.6818 16.8523 10.6818V9.25C18.5091 9.25 19.8523 10.5931 19.8523 12.25V14.125C19.8523 15.7819 18.5091 17.125 16.8523 17.125V15.6932C17.8269 15.6932 18.617 14.9031 18.617 13.9285Z" fill="#FEA1B6"/>
<path fill-rule="evenodd" clip-rule="evenodd" d="M16.875 7.375H5.62501L5.625 18.25C5.625 19.4926 6.63236 20.5 7.875 20.5H14.625C15.8676 20.5 16.875 19.4926 16.875 18.25L16.875 7.375ZM8.625 12.61C8.625 12.2146 8.94552 11.894 9.34091 11.894C9.73629 11.894 10.0568 12.2146 10.0568 12.61V15.5531C10.0568 15.9485 9.73629 16.269 9.34091 16.269C8.94552 16.269 8.625 15.9485 8.625 15.5531V12.61ZM12.4432 12.61C12.4432 12.2146 12.7637 11.894 13.1591 11.894C13.5545 11.894 13.875 12.2146 13.875 12.61V15.5531C13.875 15.9485 13.5545 16.269 13.1591 16.269C12.7637 16.269 12.4432 15.9485 12.4432 15.5531V12.61Z" fill="#FFB9CE"/>
<path fill-rule="evenodd" clip-rule="evenodd" d="M15.6625 7.64216C15.2455 8.42076 14.4242 8.95036 13.4792 8.95036C12.9292 8.95036 12.4211 8.77099 12.0102 8.46755C11.5014 9.40002 10.5121 10.0326 9.375 10.0326C8.3127 10.0326 7.37936 9.48049 6.8463 8.64753C6.63661 8.7198 6.41154 8.75904 6.1773 8.75904C5.04385 8.75904 4.125 7.84019 4.125 6.70674C4.125 5.57328 5.04385 4.65444 6.1773 4.65444C6.55972 4.65444 6.91771 4.75903 7.22422 4.94118C7.76928 4.38076 8.53148 4.03263 9.375 4.03263C10.2216 4.03263 10.9863 4.38329 11.5317 4.9473C11.9849 4.37049 12.6888 4 13.4792 4C14.4241 4 15.2454 4.52953 15.6624 5.30804C15.963 5.00468 16.3798 4.81677 16.8406 4.81677C17.7564 4.81677 18.4989 5.55921 18.4989 6.47506C18.4989 7.39091 17.7564 8.13335 16.8406 8.13335C16.3799 8.13335 15.963 7.94547 15.6625 7.64216Z" fill="#FEEFF2"/>
<defs>
<linearGradient id="paint0_linear_1664_123947" x1="-10.9286" y1="-8.53571" x2="26.7857" y2="25.9643" gradientUnits="userSpaceOnUse">
<stop offset="0.195275" stop-color="#FE7079"/>
<stop offset="0.534202" stop-color="#FD5670"/>
<stop offset="0.863632" stop-color="#F62A63"/>
</linearGradient>
</defs>
</svg>
