<svg width="24" height="25" viewBox="0 0 24 25" fill="none" xmlns="http://www.w3.org/2000/svg">
<rect y="0.25" width="24" height="24" rx="6" fill="url(#paint0_linear_1664_124021)"/>
<g filter="url(#filter0_d_1664_124021)">
<path fill-rule="evenodd" clip-rule="evenodd" d="M13.2856 14.4999L16.352 18.0773C16.8539 18.6629 17.5867 18.9999 18.3579 18.9999C19.8171 18.9999 20.9999 17.817 20.9999 16.3579V10.0225C20.9878 12.4974 18.9777 14.4999 16.5 14.4999H13.2856Z" fill="#FFD8AB"/>
</g>
<g filter="url(#filter1_d_1664_124021)">
<path fill-rule="evenodd" clip-rule="evenodd" d="M10.7144 14.4997V14.4997L7.64802 18.0771C7.14609 18.6627 6.41333 18.9997 5.64207 18.9997C4.18293 18.9997 3.00007 17.8169 3.00007 16.3577V10.0225C3.01232 12.4973 5.02232 14.4997 7.50002 14.4997H10.7144Z" fill="#FFD8AB"/>
</g>
<g filter="url(#filter2_d_1664_124021)">
<g clip-path="url(#clip0_1664_124021)">
<path fill-rule="evenodd" clip-rule="evenodd" d="M21 5.5H3V14.5H21V5.5ZM7.8214 12.25C7.40719 12.25 7.0714 11.9142 7.0714 11.5L7.0714 10.7499H6.32143C5.90722 10.7499 5.57143 10.4142 5.57143 9.99995C5.57143 9.58573 5.90722 9.24995 6.32143 9.24995H7.0714V8.5C7.0714 8.08579 7.40719 7.75 7.8214 7.75C8.23562 7.75 8.5714 8.08579 8.5714 8.5V9.24995H9.32143C9.73564 9.24995 10.0714 9.58573 10.0714 9.99995C10.0714 10.4142 9.73564 10.7499 9.32143 10.7499H8.5714V11.5C8.5714 11.9142 8.23562 12.25 7.8214 12.25ZM15.4224 10.0474C15.4224 10.46 15.088 10.7944 14.6755 10.7944C14.263 10.7944 13.9286 10.46 13.9286 10.0474C13.9286 9.63492 14.263 9.3005 14.6755 9.3005C15.088 9.3005 15.4224 9.63492 15.4224 10.0474ZM17.7765 10.7944C18.189 10.7944 18.5234 10.46 18.5234 10.0474C18.5234 9.63492 18.189 9.3005 17.7765 9.3005C17.364 9.3005 17.0296 9.63492 17.0296 10.0474C17.0296 10.46 17.364 10.7944 17.7765 10.7944ZM16.9729 8.49693C16.9729 8.90945 16.6385 9.24387 16.226 9.24387C15.8135 9.24387 15.4791 8.90945 15.4791 8.49693C15.4791 8.08441 15.8135 7.75 16.226 7.75C16.6385 7.75 16.9729 8.08441 16.9729 8.49693ZM16.226 12.3449C16.6385 12.3449 16.9729 12.0105 16.9729 11.5979C16.9729 11.1854 16.6385 10.851 16.226 10.851C15.8135 10.851 15.4791 11.1854 15.4791 11.5979C15.4791 12.0105 15.8135 12.3449 16.226 12.3449Z" fill="#FFFBF6"/>
</g>
</g>
<defs>
<filter id="filter0_d_1664_124021" x="11.2856" y="10.0225" width="11.7144" height="12.9775" filterUnits="userSpaceOnUse" color-interpolation-filters="sRGB">
<feFlood flood-opacity="0" result="BackgroundImageFix"/>
<feColorMatrix in="SourceAlpha" type="matrix" values="0 0 0 0 0 0 0 0 0 0 0 0 0 0 0 0 0 0 127 0" result="hardAlpha"/>
<feOffset dy="2"/>
<feGaussianBlur stdDeviation="1"/>
<feComposite in2="hardAlpha" operator="out"/>
<feColorMatrix type="matrix" values="0 0 0 0 0.7875 0 0 0 0 0.419099 0 0 0 0 0 0 0 0 0.05 0"/>
<feBlend mode="normal" in2="BackgroundImageFix" result="effect1_dropShadow_1664_124021"/>
<feBlend mode="normal" in="SourceGraphic" in2="effect1_dropShadow_1664_124021" result="shape"/>
</filter>
<filter id="filter1_d_1664_124021" x="1" y="10.0225" width="11.7144" height="12.9775" filterUnits="userSpaceOnUse" color-interpolation-filters="sRGB">
<feFlood flood-opacity="0" result="BackgroundImageFix"/>
<feColorMatrix in="SourceAlpha" type="matrix" values="0 0 0 0 0 0 0 0 0 0 0 0 0 0 0 0 0 0 127 0" result="hardAlpha"/>
<feOffset dy="2"/>
<feGaussianBlur stdDeviation="1"/>
<feComposite in2="hardAlpha" operator="out"/>
<feColorMatrix type="matrix" values="0 0 0 0 0.7875 0 0 0 0 0.419099 0 0 0 0 0 0 0 0 0.05 0"/>
<feBlend mode="normal" in2="BackgroundImageFix" result="effect1_dropShadow_1664_124021"/>
<feBlend mode="normal" in="SourceGraphic" in2="effect1_dropShadow_1664_124021" result="shape"/>
</filter>
<filter id="filter2_d_1664_124021" x="1" y="5.5" width="22" height="13" filterUnits="userSpaceOnUse" color-interpolation-filters="sRGB">
<feFlood flood-opacity="0" result="BackgroundImageFix"/>
<feColorMatrix in="SourceAlpha" type="matrix" values="0 0 0 0 0 0 0 0 0 0 0 0 0 0 0 0 0 0 127 0" result="hardAlpha"/>
<feOffset dy="2"/>
<feGaussianBlur stdDeviation="1"/>
<feComposite in2="hardAlpha" operator="out"/>
<feColorMatrix type="matrix" values="0 0 0 0 0.7875 0 0 0 0 0.419099 0 0 0 0 0 0 0 0 0.05 0"/>
<feBlend mode="normal" in2="BackgroundImageFix" result="effect1_dropShadow_1664_124021"/>
<feBlend mode="normal" in="SourceGraphic" in2="effect1_dropShadow_1664_124021" result="shape"/>
</filter>
<linearGradient id="paint0_linear_1664_124021" x1="-10.9286" y1="-8.53571" x2="26.7857" y2="25.9643" gradientUnits="userSpaceOnUse">
<stop offset="0.195275" stop-color="#FFB830"/>
<stop offset="0.534202" stop-color="#FF9C18"/>
<stop offset="0.863632" stop-color="#FF780F"/>
</linearGradient>
<clipPath id="clip0_1664_124021">
<rect x="3" y="5.5" width="18" height="9" rx="4.5" fill="white"/>
</clipPath>
</defs>
</svg>
