<svg width="24" height="25" viewBox="0 0 24 25" fill="none" xmlns="http://www.w3.org/2000/svg">
<rect y="0.25" width="24" height="24" rx="6" fill="url(#paint0_linear_1664_123877)"/>
<path fill-rule="evenodd" clip-rule="evenodd" d="M12.0001 20.1814C16.5645 20.1814 20.2646 18.1154 20.2646 15.5668C20.2646 13.0182 16.5645 10.9521 12.0001 10.9521C7.43574 10.9521 3.7356 13.0182 3.7356 15.5668C3.7356 18.1154 7.43574 20.1814 12.0001 20.1814ZM12.0002 17.2882C15.6441 17.2882 18.5981 15.8698 18.5981 14.1202C18.5981 12.3705 15.6441 10.9522 12.0002 10.9522C8.35632 10.9522 5.40235 12.3705 5.40235 14.1202C5.40235 15.8698 8.35632 17.2882 12.0002 17.2882Z" fill="#F6FAFE"/>
<ellipse cx="11.9558" cy="14.1201" rx="6.59786" ry="3.16799" fill="white" fill-opacity="0.32"/>
<path d="M11.4134 10.4873C9.11485 6.24783 11.2452 4.17181 12.9054 3.51763C13.0649 3.45479 13.2045 3.62189 13.1351 3.77862C11.1827 8.18459 14.2243 8.6464 13.9551 10.9249C13.7776 12.4265 12.5687 13.5912 11.6375 14.2225C11.4693 14.3365 11.2812 14.1414 11.3691 13.9581C12.156 12.3171 11.7555 10.9893 11.4134 10.4873Z" fill="url(#paint1_linear_1664_123877)"/>
<path d="M15.4075 10.5533C13.8916 6.90012 15.7493 5.35206 17.1745 4.92218C17.3386 4.87267 17.4612 5.052 17.3771 5.20136C15.4447 8.63168 17.8947 9.28006 17.4778 11.1351C17.2129 12.3133 16.1899 13.1537 15.3777 13.612C15.2007 13.7119 15.0322 13.5002 15.1337 13.3241C15.8541 12.0742 15.6416 10.9871 15.4075 10.5533Z" fill="url(#paint2_linear_1664_123877)"/>
<path d="M7.74458 10.767C5.31857 7.64313 6.70212 5.65983 7.9634 4.8692C8.10864 4.77815 8.27419 4.91879 8.23244 5.08506C7.27352 8.90361 9.80775 8.8827 9.89493 10.782C9.95029 11.9883 9.18519 13.0688 8.52269 13.7252C8.37831 13.8682 8.15997 13.7085 8.21141 13.5119C8.57659 12.1162 8.08479 11.1237 7.74458 10.767Z" fill="url(#paint3_linear_1664_123877)"/>
<defs>
<linearGradient id="paint0_linear_1664_123877" x1="-10.9286" y1="-8.53571" x2="26.7857" y2="25.9643" gradientUnits="userSpaceOnUse">
<stop offset="0.195275" stop-color="#27CAFE"/>
<stop offset="0.534202" stop-color="#0AABFC"/>
<stop offset="0.863632" stop-color="#0077E7"/>
</linearGradient>
<linearGradient id="paint1_linear_1664_123877" x1="12.1893" y1="3.37988" x2="12.1893" y2="14.5923" gradientUnits="userSpaceOnUse">
<stop stop-color="white" stop-opacity="0.32"/>
<stop offset="1" stop-color="white"/>
</linearGradient>
<linearGradient id="paint2_linear_1664_123877" x1="16.6631" y1="4.72579" x2="15.6976" y2="14.0245" gradientUnits="userSpaceOnUse">
<stop stop-color="white" stop-opacity="0.32"/>
<stop offset="1" stop-color="white"/>
</linearGradient>
<linearGradient id="paint3_linear_1664_123877" x1="7.4183" y1="4.81468" x2="8.94003" y2="14.0387" gradientUnits="userSpaceOnUse">
<stop stop-color="white" stop-opacity="0.32"/>
<stop offset="1" stop-color="white"/>
</linearGradient>
</defs>
</svg>
